<?xml version="1.0" standalone="no"?><!DOCTYPE svg PUBLIC "-//W3C//DTD SVG 1.1//EN" "http://www.w3.org/Graphics/SVG/1.1/DTD/svg11.dtd"><svg t="1640533384384" class="icon" viewBox="0 0 1024 1024" version="1.1" xmlns="http://www.w3.org/2000/svg" p-id="5987" xmlns:xlink="http://www.w3.org/1999/xlink" width="300" height="300"><defs><style type="text/css"></style></defs><path d="M774.144 839.68c-0.683008 36.864-13.483008 67.755008-38.4 92.672S679.936 970.068992 643.072 970.752H184.32c-36.864-0.683008-67.755008-13.483008-92.672-38.4S53.931008 876.544 53.248 839.68V380.928c0.683008-36.864 13.483008-67.755008 38.4-92.672S147.456 250.539008 184.32 249.856v65.536c-18.432 0.683008-33.792 7.168-46.08 19.456s-18.772992 27.648-19.456 46.08v458.752c0.683008 18.432 7.168 33.792 19.456 46.08s27.648 18.772992 46.08 19.456h458.752c18.432-0.683008 33.792-7.168 46.08-19.456s18.772992-27.648 19.456-46.08h65.536zM380.928 118.784c-18.432 0.683008-33.792 7.168-46.08 19.456s-18.772992 27.648-19.456 46.08v458.752c0.683008 18.432 7.168 33.792 19.456 46.08s27.648 18.772992 46.08 19.456h458.752c18.432-0.683008 33.792-7.168 46.08-19.456s18.772992-27.648 19.456-46.08V184.32c-0.683008-18.432-7.168-33.792-19.456-46.08s-27.648-18.772992-46.08-19.456H380.928z m0-65.536h458.752c36.864 0.683008 67.755008 13.483008 92.672 38.4S970.068992 147.456 970.752 184.32v458.752c-0.683008 36.864-13.483008 67.755008-38.4 92.672S876.544 773.460992 839.68 774.144H380.928c-36.864-0.683008-67.755008-13.483008-92.672-38.4S250.539008 679.936 249.856 643.072V184.32c0.683008-36.864 13.483008-67.755008 38.4-92.672S344.064 53.931008 380.928 53.248z" p-id="5988"></path></svg>