<?xml version="1.0" standalone="no"?><!DOCTYPE svg PUBLIC "-//W3C//DTD SVG 1.1//EN" "http://www.w3.org/Graphics/SVG/1.1/DTD/svg11.dtd"><svg t="1640434248842" class="icon" viewBox="0 0 1024 1024" version="1.1" xmlns="http://www.w3.org/2000/svg" p-id="3260" xmlns:xlink="http://www.w3.org/1999/xlink" width="300" height="300"><defs><style type="text/css"></style></defs><path d="M909.3 506.3L781.7 405.6c-4.7-3.7-11.7-0.4-11.7 5.7V476H548V254h64.8c6 0 9.4-7 5.7-11.7L517.7 114.7c-2.9-3.7-8.5-3.7-11.3 0L405.6 242.3c-3.7 4.7-0.4 11.7 5.7 11.7H476v222H254v-64.8c0-6-7-9.4-11.7-5.7L114.7 506.3c-3.7 2.9-3.7 8.5 0 11.3l127.5 100.8c4.7 3.7 11.7 0.4 11.7-5.7V548h222v222h-64.8c-6 0-9.4 7-5.7 11.7l100.8 127.5c2.9 3.7 8.5 3.7 11.3 0l100.8-127.5c3.7-4.7 0.4-11.7-5.7-11.7H548V548h222v64.8c0 6 7 9.4 11.7 5.7l127.5-100.8c3.7-2.9 3.7-8.5 0.1-11.4z" p-id="3261"></path></svg>