<?xml version="1.0" standalone="no"?><!DOCTYPE svg PUBLIC "-//W3C//DTD SVG 1.1//EN" "http://www.w3.org/Graphics/SVG/1.1/DTD/svg11.dtd"><svg t="1642312421437" class="icon" viewBox="0 0 1024 1024" version="1.1" xmlns="http://www.w3.org/2000/svg" p-id="5732" xmlns:xlink="http://www.w3.org/1999/xlink" width="200" height="200"><defs><style type="text/css"></style></defs><path d="M298.666667 981.333333a85.333333 85.333333 0 0 1-85.333334-85.333333V128a85.333333 85.333333 0 0 1 85.333334-85.333333h426.666666a85.333333 85.333333 0 0 1 85.333334 85.333333v768a85.333333 85.333333 0 0 1-85.333334 85.333333zM298.666667 149.333333v725.333334a21.333333 21.333333 0 0 0 21.333333 21.333333h384a21.333333 21.333333 0 0 0 21.333333-21.333333v-725.333334a21.333333 21.333333 0 0 0-21.333333-21.333333h-384a21.333333 21.333333 0 0 0-21.333333 21.333333zM938.666667 768V256a42.666667 42.666667 0 0 1 42.666666-42.666667 42.666667 42.666667 0 0 1 42.666667 42.666667v512a42.666667 42.666667 0 0 1-42.666667 42.666667 42.666667 42.666667 0 0 1-42.666666-42.666667zM0 768V256a42.666667 42.666667 0 0 1 42.666667-42.666667 42.666667 42.666667 0 0 1 42.666666 42.666667v512a42.666667 42.666667 0 0 1-42.666666 42.666667 42.666667 42.666667 0 0 1-42.666667-42.666667z" p-id="5733"></path></svg>