<?xml version="1.0" standalone="no"?><!DOCTYPE svg PUBLIC "-//W3C//DTD SVG 1.1//EN" "http://www.w3.org/Graphics/SVG/1.1/DTD/svg11.dtd"><svg t="1642312224076" class="icon" viewBox="0 0 1024 1024" version="1.1" xmlns="http://www.w3.org/2000/svg" p-id="2764" xmlns:xlink="http://www.w3.org/1999/xlink" width="200" height="200"><defs><style type="text/css"></style></defs><path d="M217.088 151.552c-18.432 0.683008-33.792 7.168-46.08 19.456s-18.772992 27.648-19.456 46.08v589.824c0.683008 18.432 7.168 33.792 19.456 46.08s27.648 18.772992 46.08 19.456h589.824c18.432-0.683008 33.792-7.168 46.08-19.456s18.772992-27.648 19.456-46.08V217.088c-0.683008-18.432-7.168-33.792-19.456-46.08s-27.648-18.772992-46.08-19.456H217.088z m0-65.536h589.824c36.864 0.683008 67.755008 13.483008 92.672 38.4S937.300992 180.224 937.984 217.088v589.824c-0.683008 36.864-13.483008 67.755008-38.4 92.672S843.776 937.300992 806.912 937.984H217.088c-36.864-0.683008-67.755008-13.483008-92.672-38.4S86.699008 843.776 86.016 806.912V217.088c0.683008-36.864 13.483008-67.755008 38.4-92.672S180.224 86.699008 217.088 86.016z m163.84 327.68c18.432-0.683008 33.792-7.168 46.08-19.456s18.432-27.648 18.432-46.08-6.144-33.792-18.432-46.08-27.648-18.432-46.08-18.432-33.792 6.144-46.08 18.432-18.432 27.648-18.432 46.08 6.144 33.792 18.432 46.08 27.648 18.772992 46.08 19.456z m0 65.536c-36.864-0.683008-67.755008-13.483008-92.672-38.4S250.539008 385.024 249.856 348.16c0.683008-36.864 13.483008-67.755008 38.4-92.672S344.064 217.771008 380.928 217.088c36.864 0.683008 67.755008 13.483008 92.672 38.4S511.316992 311.296 512 348.16c-0.683008 36.864-13.483008 67.755008-38.4 92.672S417.792 478.548992 380.928 479.232z m98.304-163.84h262.144c21.844992 0 32.768 10.923008 32.768 32.768s-10.923008 32.768-32.768 32.768H479.232c-21.844992 0-32.768-10.923008-32.768-32.768s10.923008-32.768 32.768-32.768z m163.84 425.984c18.432-0.683008 33.792-7.168 46.08-19.456s18.432-27.648 18.432-46.08-6.144-33.792-18.432-46.08-27.648-18.432-46.08-18.432-33.792 6.144-46.08 18.432-18.432 27.648-18.432 46.08 6.144 33.792 18.432 46.08 27.648 18.772992 46.08 19.456z m0 65.536c-36.864-0.683008-67.755008-13.483008-92.672-38.4S512.683008 712.704 512 675.84c0.683008-36.864 13.483008-67.755008 38.4-92.672S606.208 545.451008 643.072 544.768c36.864 0.683008 67.755008 13.483008 92.672 38.4S773.460992 638.976 774.144 675.84c-0.683008 36.864-13.483008 67.755008-38.4 92.672S679.936 806.228992 643.072 806.912zM282.624 643.072h262.144c21.844992 0 32.768 10.923008 32.768 32.768s-10.923008 32.768-32.768 32.768H282.624c-21.844992 0-32.768-10.923008-32.768-32.768s10.923008-32.768 32.768-32.768z" p-id="2765"></path></svg>